<svg width="192" height="65" viewBox="0 0 192 65" fill="none" xmlns="http://www.w3.org/2000/svg">
<path d="M35.1458 19.2688C35.1458 20.8424 36.4258 22.1179 38.005 22.1179C39.5842 22.1179 40.8642 20.8424 40.8642 19.2688H38.005H35.1458Z" fill="#3E574A"/>
<path d="M38.0049 10.2576L29.6641 18.5689H35.1457H38.0049H40.8641H46.3457L38.0049 10.2576Z" fill="black"/>
<path d="M38.3073 4.82568H37.7041V15.6879H38.3073V4.82568Z" fill="black"/>
<path d="M38.1409 52.9335C32.8785 52.9335 27.6145 52.9223 22.3521 52.9478C21.7265 52.951 21.5121 52.7645 21.4273 52.1443C21.0337 49.2729 20.5985 46.4078 20.1537 43.5444C19.8977 41.8991 20.5553 41.0971 22.2161 41.0987C22.6897 41.0987 23.1665 41.1194 23.6385 41.0955C24.1041 41.0716 24.2625 41.2454 24.2561 41.7189C24.2321 43.3611 24.2705 45.0048 24.2385 46.647C24.2257 47.2529 24.4433 47.4091 25.0273 47.4075C33.7681 47.3916 42.5105 47.3916 51.2513 47.4107C51.9041 47.4123 52.1169 47.2273 52.1009 46.5737C52.0625 44.9538 52.1073 43.3324 52.0817 41.7125C52.0737 41.2358 52.2337 41.0668 52.7009 41.0923C53.1969 41.1178 53.6945 41.1003 54.1905 41.0923C55.6897 41.0684 56.4225 41.8464 56.2161 43.3308C55.8689 45.8243 55.4833 48.3115 55.1121 50.8019C55.0433 51.269 54.9185 51.7313 54.9025 52.2001C54.8817 52.7836 54.6369 52.9462 54.0641 52.9446C48.9137 52.9239 43.7649 52.9335 38.6145 52.9335C38.4577 52.9335 38.2993 52.9335 38.1409 52.9335Z" fill="black"/>
<path d="M24.9872 44.2221C24.9872 41.8912 24.9552 39.7835 25.0048 37.6774C25.0224 36.9089 25.7344 36.3493 26.5184 36.3046C26.744 36.2919 26.9712 36.2775 27.1952 36.2999C27.7984 36.3604 28.2 36.1787 28.616 35.6621C29.048 35.1264 29.6896 34.6609 30.336 34.409C35.5808 32.3634 40.8544 32.3427 46.0832 34.4552C46.808 34.7486 47.352 35.4756 48 35.9762C48.1968 36.1277 48.4512 36.252 48.6944 36.2839C49.072 36.3349 49.4608 36.2807 49.8432 36.3014C50.5904 36.3413 51.312 36.8977 51.3296 37.6263C51.3808 39.7516 51.3488 41.8769 51.3488 44.1902C50.0992 42.733 48.544 42.7665 46.9712 42.7713C40.92 42.7904 34.8688 42.7936 28.8192 42.7697C27.4128 42.7665 26.1088 42.9259 24.9872 44.2221Z" fill="black"/>
<path d="M51.3153 46.6455C47.0577 46.6455 42.8433 46.6455 38.5793 46.6455C38.5793 45.614 38.5793 44.6143 38.5793 43.5636C38.7521 43.5445 38.9233 43.5078 39.0945 43.5062C42.1665 43.5031 45.2385 43.4903 48.3089 43.5078C50.1441 43.519 51.4657 44.8901 51.3153 46.6455Z" fill="#3E574A"/>
<path d="M37.7665 43.5653C37.7665 44.5969 37.7665 45.5965 37.7665 46.6376C33.4993 46.6376 29.2689 46.6376 25.0433 46.6376C24.8561 45.2809 25.8305 43.9241 27.1953 43.6148C27.4785 43.551 27.7761 43.5095 28.0657 43.5095C31.1361 43.5032 34.2065 43.5064 37.2769 43.5095C37.4305 43.5095 37.5825 43.543 37.7665 43.5653Z" fill="#3E574A"/>
<path d="M53.52 53.6765C53.52 54.4433 53.5552 55.0938 53.5104 55.7395C53.4624 56.4474 52.7952 56.9688 52.048 56.9496C51.3328 56.9321 50.752 56.3932 50.7184 55.6853C50.6944 55.1688 50.6784 54.6474 50.7296 54.1356C50.7456 53.9714 50.984 53.7052 51.1328 53.6972C51.8944 53.6509 52.6608 53.6765 53.52 53.6765Z" fill="black"/>
<path d="M25.8545 53.6718C25.8545 54.4499 25.9105 55.145 25.8385 55.8258C25.7649 56.5257 25.1009 56.9849 24.3809 56.9514C23.6705 56.9179 23.0625 56.379 23.0737 55.6647C23.1105 53.2111 22.5937 53.7515 24.9169 53.6734C25.2033 53.6638 25.4913 53.6718 25.8545 53.6718Z" fill="black"/>
<path d="M100.395 37.615C101.72 37.615 102.968 37.8621 104.138 38.3532C105.306 38.8458 106.325 39.5234 107.192 40.3875C108.059 41.2517 108.747 42.2609 109.253 43.4136C109.758 44.5663 110.011 45.8035 110.011 47.1236C110.035 48.4693 109.8 49.724 109.307 50.8879C108.813 52.0533 108.138 53.0673 107.283 53.9315C106.427 54.7956 105.421 55.4812 104.266 55.985C103.109 56.4888 101.867 56.7407 100.542 56.7407C99.192 56.7407 97.9344 56.4952 96.7648 56.0025C95.5952 55.5099 94.5712 54.8323 93.6928 53.9681C92.8128 53.104 92.12 52.0948 91.6144 50.9421C91.1088 49.7894 90.856 48.5522 90.856 47.232C90.856 45.9119 91.1024 44.662 91.5968 43.4853C92.0896 42.3087 92.7712 41.2883 93.64 40.4242C94.5072 39.5601 95.52 38.8745 96.6768 38.3707C97.8272 37.8669 99.0688 37.615 100.395 37.615ZM100.43 51.6994C101.056 51.6994 101.648 51.5798 102.202 51.3391C102.755 51.0999 103.237 50.7747 103.648 50.3665C104.058 49.9584 104.382 49.4721 104.624 48.9077C104.864 48.3433 104.986 47.7486 104.986 47.1252C104.986 46.5002 104.866 45.9183 104.624 45.3778C104.382 44.8373 104.051 44.3638 103.63 43.9541C103.208 43.5459 102.72 43.2287 102.166 42.9991C101.611 42.7711 101.021 42.6563 100.395 42.6563C99.7696 42.6563 99.184 42.7775 98.6416 43.0166C98.0992 43.2574 97.624 43.5874 97.2128 44.0067C96.8032 44.4276 96.4784 44.9139 96.2368 45.4655C95.9952 46.0188 95.8752 46.6071 95.8752 47.2305C95.8752 47.8554 95.9952 48.4374 96.2368 48.9778C96.4768 49.5183 96.8016 49.9918 97.2128 50.4C97.6224 50.8081 98.104 51.127 98.6592 51.355C99.2128 51.5846 99.8032 51.6994 100.43 51.6994Z" fill="black"/>
<path d="M140.194 46.1511C140.194 46.2946 140.2 46.4524 140.211 46.6198C140.222 46.7888 140.229 46.9562 140.229 47.1236V56.7407H135.131V47.2305C135.131 46.631 135.053 46.0538 134.896 45.5022C134.739 44.9505 134.51 44.4643 134.21 44.0434C133.909 43.6241 133.541 43.2924 133.107 43.0533C132.674 42.8141 132.179 42.693 131.624 42.693C130.635 42.693 129.864 43.1011 129.31 43.9174C128.755 44.7337 128.467 45.8035 128.443 47.1236V56.7407H123.419V47.2305C123.419 45.8609 123.142 44.7624 122.589 43.9349C122.034 43.1059 121.251 42.6914 120.238 42.6914C119.709 42.6914 119.226 42.8109 118.792 43.0517C118.358 43.2924 117.984 43.6161 117.672 44.0242C117.358 44.4324 117.117 44.9123 116.949 45.4655C116.779 46.0188 116.696 46.5943 116.696 47.1954V56.7407H111.707V47.1236C111.707 45.8035 111.918 44.5663 112.339 43.4136C112.76 42.2609 113.352 41.2517 114.11 40.3875C114.869 39.5234 115.786 38.8442 116.858 38.3532C117.93 37.8621 119.117 37.615 120.419 37.615C121.432 37.615 122.402 37.8494 123.33 38.3165C124.258 38.7852 125.118 39.3321 125.914 39.9555C126.685 39.3321 127.528 38.7852 128.443 38.3165C129.358 37.8478 130.371 37.615 131.48 37.615C132.709 37.615 133.835 37.8318 134.861 38.2639C135.885 38.6959 136.771 39.297 137.518 40.0655C138.266 40.834 138.867 41.7395 139.326 42.7854C139.784 43.8281 140.074 44.9505 140.194 46.1511Z" fill="black"/>
<path d="M141.352 37.615C142.653 37.615 143.888 37.8669 145.058 38.3707C146.226 38.8745 147.245 39.5601 148.112 40.4242C148.979 41.2883 149.661 42.3039 150.154 43.4678C150.648 44.6333 150.894 45.8753 150.894 47.1954V56.7407H145.834V47.1954C145.834 46.5704 145.718 45.9837 145.49 45.4304C145.261 44.8788 144.941 44.3973 144.531 43.9892C144.122 43.581 143.646 43.2574 143.104 43.0166C142.562 42.7775 141.978 42.6563 141.35 42.6563V37.615H141.352Z" fill="black"/>
<path d="M150.894 40.6044C150.774 40.2441 150.557 39.8487 150.245 39.4151C149.931 38.983 149.552 38.5812 149.106 38.2081C148.659 37.8367 148.166 37.5114 147.624 37.2356C147.082 36.9598 146.509 36.786 145.907 36.7127V32.5706H150.896V40.6044H150.894Z" fill="#3E574A"/>
<path d="M164.667 32.572V37.6516H163.51C162.883 37.6516 162.293 37.7728 161.739 38.0119C161.184 38.2527 160.702 38.5763 160.293 38.9845C159.883 39.3926 159.557 39.8725 159.317 40.4257C159.075 40.979 158.955 41.5673 158.955 42.1907V42.6594H164.667V47.6656H158.955V56.7438H153.894V42.1907C153.894 40.8706 154.141 39.627 154.635 38.4631C155.128 37.2976 155.809 36.2773 156.678 35.402C157.545 34.5251 158.563 33.8347 159.733 33.3309C160.901 32.8271 162.149 32.5752 163.473 32.5752H164.667V32.572Z" fill="black"/>
<path d="M186.32 37.615V55.6262C186.296 56.8985 186.03 58.0991 185.525 59.2279C185.019 60.3566 184.338 61.3404 183.482 62.1822C182.626 63.0224 181.626 63.6824 180.482 64.1639C179.336 64.6438 178.114 64.8846 176.813 64.8846V59.9134C177.414 59.9134 177.982 59.7986 178.512 59.5706C179.042 59.3426 179.506 59.0302 179.904 58.6348C180.301 58.2378 180.621 57.7754 180.862 57.2477C181.102 56.72 181.235 56.1556 181.259 55.5545C180.608 55.9387 179.898 56.2337 179.126 56.4362C178.355 56.6402 177.571 56.7423 176.776 56.7423C175.45 56.7423 174.203 56.4904 173.035 55.9866C171.866 55.4828 170.842 54.7972 169.963 53.9331C169.083 53.0689 168.384 52.0597 167.867 50.907C167.349 49.7543 167.09 48.5171 167.09 47.197V37.615H172.114V47.197C172.138 47.8219 172.27 48.4039 172.51 48.9444C172.75 49.4848 173.077 49.9584 173.486 50.3665C173.896 50.7747 174.371 51.0935 174.915 51.3215C175.458 51.5495 176.042 51.6643 176.669 51.6643C177.294 51.6643 177.886 51.5447 178.44 51.304C178.994 51.0648 179.475 50.7396 179.886 50.3314C180.296 49.9233 180.621 49.4498 180.862 48.9093C181.102 48.3688 181.224 47.798 181.224 47.1986V37.6166H186.32V37.615Z" fill="black"/>
<path d="M74.824 31.7478H69.8848V56.7423H74.824V31.7478Z" fill="black"/>
<path d="M88.56 31.7478H83.6208V56.7423H88.56V31.7478Z" fill="black"/>
<path d="M87.9832 46.7057V41.7839H71.0184V46.7057H87.9832Z" fill="black"/>
<path d="M42.2753 3.20578H42.2769L38.0433 0.197266L38.0417 0.19886L38.0401 0.197266L33.8081 3.20578L10.6208 20.0675V25.7019V64.8924H15.8417V21.9919L38.0417 6.2143L60.5105 22.1816V64.8924H65.7313V25.8932V20.0675L42.2753 3.20578Z" fill="#3E574A"/>
<path d="M33.2021 64.8925V59.6902L10.6213 59.6902V64.8925H33.2021Z" fill="#3E574A"/>
<path d="M52.8961 64.8925L47.0081 59.6902H65.7457V64.8925H52.8961Z" fill="#3E574A"/>
<path d="M112.361 17.9551H69.3423V30.4579H112.361V17.9551Z" fill="#3E574A"/>
<path d="M74.547 28.8875V24.4808L71.1582 19.229H74.1902L75.4942 21.7162C75.5038 21.7289 75.5166 21.7528 75.5342 21.7895C75.6702 22.0494 75.7662 22.2981 75.819 22.5357C75.8638 22.3204 75.9582 22.0813 76.1038 21.8166C76.131 21.7688 76.1486 21.7353 76.1566 21.7178L77.4478 19.2306H80.4862L77.0974 24.4824V28.8891H74.547V28.8875Z" fill="white"/>
<path d="M90.6349 24.079C90.6349 24.7742 90.5069 25.4246 90.2509 26.0321C89.9949 26.6395 89.6221 27.1816 89.1325 27.6615C88.6381 28.1366 88.0733 28.5033 87.4381 28.76C86.8029 29.0167 86.1421 29.1458 85.4589 29.1458C84.7661 29.1458 84.1021 29.0167 83.4701 28.76C82.8365 28.5033 82.2797 28.1366 81.7981 27.6615C81.2989 27.1816 80.9213 26.6363 80.6621 26.0257C80.4045 25.4151 80.2749 24.7662 80.2749 24.079C80.2749 23.3887 80.4045 22.7382 80.6621 22.1291C80.9197 21.5201 81.2989 20.9764 81.7981 20.4965C82.2797 20.0214 82.8365 19.6547 83.4701 19.398C84.1037 19.1413 84.7661 19.0122 85.4589 19.0122C86.1469 19.0122 86.8109 19.1413 87.4477 19.398C88.0861 19.6547 88.6477 20.0214 89.1325 20.4965C89.6173 20.9717 89.9901 21.5153 90.2477 22.126C90.5053 22.7366 90.6349 23.3887 90.6349 24.079ZM85.4573 26.9153C86.1901 26.9153 86.7949 26.6475 87.2749 26.1102C87.7533 25.5729 87.9933 24.8969 87.9933 24.079C87.9933 23.2707 87.7501 22.5947 87.2653 22.0542C86.7805 21.5137 86.1773 21.2427 85.4573 21.2427C84.7245 21.2427 84.1181 21.5121 83.6397 22.051C83.1613 22.5899 82.9213 23.2659 82.9213 24.079C82.9213 24.9065 83.1581 25.5857 83.6301 26.1182C84.1021 26.6491 84.7117 26.9153 85.4573 26.9153Z" fill="white"/>
<path d="M92.2302 19.229H94.8654V23.9259C94.8654 24.6163 94.883 25.1121 94.9182 25.4134C94.9534 25.7148 95.0126 25.9667 95.0974 26.1692C95.1982 26.4147 95.3758 26.6028 95.627 26.7336C95.8782 26.8627 96.1854 26.9281 96.547 26.9281C96.9086 26.9281 97.2142 26.8627 97.4638 26.7336C97.7134 26.6044 97.891 26.4163 97.9966 26.1692C98.0798 25.9667 98.1406 25.7148 98.1758 25.4134C98.211 25.1121 98.2286 24.6163 98.2286 23.9259V23.2659V19.229H100.857V24.3357C100.857 25.3959 100.793 26.1771 100.665 26.6809C100.537 27.1848 100.321 27.6136 100.017 27.9708C99.6862 28.363 99.2318 28.6563 98.6542 28.8508C98.0766 29.0469 97.3742 29.1442 96.5486 29.1442C95.7182 29.1442 95.0158 29.0469 94.4398 28.8508C93.8638 28.6547 93.4078 28.3614 93.0734 27.9708C92.7726 27.6152 92.5582 27.1848 92.4286 26.6809C92.299 26.1771 92.2334 25.3959 92.2334 24.3357V23.3328V19.229H92.2302Z" fill="white"/>
<path d="M102.862 28.8875V19.229H105.622C106.704 19.229 107.458 19.2784 107.883 19.3773C108.309 19.4761 108.677 19.6419 108.985 19.8747C109.334 20.1378 109.602 20.4758 109.79 20.8839C109.978 21.2921 110.072 21.7433 110.072 22.2359C110.072 22.9837 109.888 23.5911 109.518 24.0599C109.15 24.5286 108.613 24.8395 107.905 24.9925L110.547 28.8843H107.562L105.337 25.1041V28.8843H102.862V28.8875ZM105.337 23.7952H105.827C106.397 23.7952 106.813 23.6979 107.075 23.505C107.337 23.3121 107.469 23.0076 107.469 22.5947C107.469 22.1116 107.346 21.7672 107.101 21.5615C106.856 21.3574 106.445 21.2554 105.865 21.2554H105.336V23.7952H105.337Z" fill="white"/>
</svg>
