<svg width="158" height="54" viewBox="0 0 158 54" fill="none" xmlns="http://www.w3.org/2000/svg">
<path d="M38.9709 24.16C41.7442 24.0533 43.0909 24 43.0109 24H43.2509V31.08C43.2509 36.28 43.2909 39 43.3709 39.24C43.5042 39.6133 44.3575 39.8 45.9309 39.8C46.6775 39.8 47.3309 39.6933 47.8909 39.48C48.7975 39.08 49.4909 38.4533 49.9709 37.6C50.2375 37.0933 50.3842 36.6533 50.4109 36.28C50.4375 36.1467 50.4509 34.7333 50.4509 32.04C50.4509 29.4 50.4242 28.0133 50.3709 27.88C50.2909 27.6133 50.1175 27.44 49.8509 27.36C49.4775 27.2533 48.9309 27.2 48.2109 27.2H47.6909V25.76C47.6909 24.8 47.7042 24.32 47.7309 24.32L51.8509 24.16C54.5709 24.0533 55.9442 24 55.9709 24C55.9975 24 56.0109 26.3733 56.0109 31.12C56.0109 35.8667 56.0375 38.3067 56.0909 38.44C56.1709 38.7067 56.3442 38.88 56.6109 38.96C56.9842 39.0667 57.5309 39.12 58.2509 39.12H58.7709V40.56C58.7709 41.52 58.7575 42 58.7309 42C58.2242 42 56.8909 42.04 54.7309 42.12C52.5709 42.2 51.2375 42.24 50.7309 42.24C50.7042 42.24 50.6909 41.8667 50.6909 41.12V40.04L50.4509 40.24C49.2509 41.2267 47.8775 41.8533 46.3309 42.12C45.1309 42.3333 43.7975 42.3333 42.3309 42.12C42.2775 42.0933 42.2242 42.08 42.1709 42.08C41.3442 41.9733 40.6109 41.7467 39.9709 41.4C38.8509 40.84 38.1309 39.8667 37.8109 38.48L37.7309 38.08L37.6909 33C37.6909 29.72 37.6642 27.9733 37.6109 27.76C37.4775 27.4933 37.0775 27.32 36.4109 27.24C36.2509 27.2133 35.9309 27.2 35.4509 27.2H34.9309V25.76V24.32H35.0509L38.9709 24.16ZM64.8778 14.24C64.9311 14.2133 65.1711 14.2 65.5978 14.2C66.0511 14.2533 66.3444 14.2933 66.4778 14.32C67.5178 14.64 68.2644 15.2533 68.7178 16.16C68.9578 16.6667 69.0778 17.16 69.0778 17.64C69.0778 18.1467 68.9578 18.64 68.7178 19.12C68.2644 20.0533 67.5178 20.68 66.4778 21C66.2378 21.0533 65.9044 21.08 65.4778 21.08C65.0244 21.08 64.6911 21.0533 64.4778 21C63.4111 20.68 62.6511 20.0533 62.1978 19.12C61.9844 18.6933 61.8778 18.2 61.8778 17.64C61.8778 17.2667 61.8911 17 61.9178 16.84C62.0511 16.36 62.2911 15.9067 62.6378 15.48C63.1978 14.8133 63.9444 14.4 64.8778 14.24ZM64.5978 24.16C67.2644 24.0533 68.5444 24 68.4378 24H68.6778V31.56V39.12H69.9178H71.1578V40.56V42H70.7978L68.2378 41.92C66.7711 41.8933 65.2511 41.8933 63.6778 41.92L60.9578 42H60.5978V40.56V39.12H61.9978H63.3578V33.64C63.3578 29.9333 63.3444 28.0267 63.3178 27.92C63.2111 27.6 63.0378 27.4133 62.7978 27.36C62.4244 27.2533 61.8911 27.2 61.1978 27.2H60.7178V25.76V24.32H60.8378L64.5978 24.16ZM89.6112 14.4C92.2779 14.2933 93.5845 14.24 93.5312 14.24H93.7712V26.24C93.7712 34.24 93.7979 38.3067 93.8512 38.44C93.9312 38.7067 94.1045 38.88 94.3712 38.96C94.7445 39.0667 95.2912 39.12 96.0112 39.12H96.5312V40.56C96.5312 41.52 96.5179 42 96.4912 42C95.9845 42 94.6112 42.04 92.3712 42.12C90.1312 42.2 88.7579 42.24 88.2512 42.24C88.2245 42.24 88.2112 41.96 88.2112 41.4V40.6L88.0112 40.72C86.8912 41.36 85.6112 41.8133 84.1712 42.08C82.9179 42.2667 81.7712 42.2933 80.7312 42.16C78.7579 41.8133 77.1845 41.0533 76.0112 39.88C74.2512 38.1467 73.4112 35.7733 73.4912 32.76C73.5179 31.72 73.6912 30.6933 74.0112 29.68C74.8645 27.2267 76.4779 25.5467 78.8512 24.64C78.9312 24.6133 79.0112 24.5867 79.0912 24.56C80.0245 24.24 81.0512 24.0533 82.1712 24C84.3045 23.9467 86.2779 24.3467 88.0912 25.2L88.4512 25.36V21.84C88.4512 19.4933 88.4245 18.2533 88.3712 18.12C88.2912 17.8533 88.1179 17.68 87.8512 17.6C87.4779 17.4933 86.9312 17.44 86.2112 17.44H85.6912V16V14.56H85.8112C85.6779 14.56 86.9445 14.5067 89.6112 14.4ZM85.0912 26.56C84.5579 26.4533 83.9979 26.4267 83.4112 26.48C82.2379 26.6133 81.3445 26.9867 80.7312 27.6C80.0912 28.2667 79.7312 29.5067 79.6512 31.32C79.6245 31.96 79.6112 32.7733 79.6112 33.76C79.6379 36.1333 79.8645 37.64 80.2912 38.28C80.3712 38.4133 80.4779 38.5467 80.6112 38.68C81.4912 39.6667 82.7845 40.0133 84.4912 39.72C85.0779 39.6133 85.6379 39.4267 86.1712 39.16C86.7312 38.8667 87.2512 38.48 87.7312 38L88.2112 37.52V32.8V28.08L88.0112 27.92C87.1312 27.1733 86.1579 26.72 85.0912 26.56ZM107.718 23.92L110.398 23.96C112.291 24.2267 113.811 24.8933 114.958 25.96C116.291 27.2933 117.051 29.1067 117.238 31.4C117.318 32.3867 117.198 32.9867 116.878 33.2C116.771 33.2533 114.745 33.28 110.798 33.28H104.918V34.08C104.998 35.9467 105.371 37.2533 106.038 38C106.091 38.0533 106.158 38.12 106.238 38.2C107.011 38.9733 108.185 39.44 109.758 39.6C110.371 39.6533 110.878 39.64 111.278 39.56C112.718 39.3467 113.731 38.6267 114.318 37.4C114.345 37.32 114.371 37.2533 114.398 37.2C114.531 36.8533 114.745 36.6667 115.038 36.64C115.171 36.6133 115.438 36.6 115.838 36.6C116.425 36.6 116.771 36.6267 116.878 36.68C117.198 36.84 117.318 37.12 117.238 37.52C117.078 38.08 116.811 38.6 116.438 39.08C115.238 40.7333 113.358 41.76 110.798 42.16C110.051 42.2667 109.051 42.28 107.798 42.2C107.718 42.1733 107.638 42.16 107.558 42.16C103.238 41.6 100.478 39.5733 99.2781 36.08C99.1181 35.5467 98.9847 34.9867 98.8781 34.4C98.7714 33.6533 98.7714 32.7733 98.8781 31.76C98.8781 31.68 98.8781 31.6133 98.8781 31.56C99.1714 29.8267 99.7981 28.3733 100.758 27.2C101.105 26.72 101.611 26.24 102.278 25.76C103.745 24.6933 105.558 24.08 107.718 23.92ZM109.518 26.4C109.118 26.32 108.611 26.3067 107.998 26.36C106.798 26.5733 105.958 27.1733 105.478 28.16C105.211 28.72 105.038 29.5333 104.958 30.6V30.96H108.678H112.438L112.398 30.76C112.131 28.28 111.171 26.8267 109.518 26.4ZM128.812 23.92L131.492 23.96C133.385 24.2267 134.905 24.8933 136.052 25.96C137.385 27.2933 138.145 29.1067 138.332 31.4C138.412 32.3867 138.292 32.9867 137.972 33.2C137.865 33.2533 135.838 33.28 131.892 33.28H126.012V34.08C126.092 35.9467 126.465 37.2533 127.132 38C127.185 38.0533 127.252 38.12 127.332 38.2C128.105 38.9733 129.278 39.44 130.852 39.6C131.465 39.6533 131.972 39.64 132.372 39.56C133.812 39.3467 134.825 38.6267 135.412 37.4C135.438 37.32 135.465 37.2533 135.492 37.2C135.625 36.8533 135.838 36.6667 136.132 36.64C136.265 36.6133 136.532 36.6 136.932 36.6C137.518 36.6 137.865 36.6267 137.972 36.68C138.292 36.84 138.412 37.12 138.332 37.52C138.172 38.08 137.905 38.6 137.532 39.08C136.332 40.7333 134.452 41.76 131.892 42.16C131.145 42.2667 130.145 42.28 128.892 42.2C128.812 42.1733 128.732 42.16 128.652 42.16C124.332 41.6 121.572 39.5733 120.372 36.08C120.212 35.5467 120.078 34.9867 119.972 34.4C119.865 33.6533 119.865 32.7733 119.972 31.76C119.972 31.68 119.972 31.6133 119.972 31.56C120.265 29.8267 120.892 28.3733 121.852 27.2C122.198 26.72 122.705 26.24 123.372 25.76C124.838 24.6933 126.652 24.08 128.812 23.92ZM130.612 26.4C130.212 26.32 129.705 26.3067 129.092 26.36C127.892 26.5733 127.052 27.1733 126.572 28.16C126.305 28.72 126.132 29.5333 126.052 30.6V30.96H129.772H133.532L133.492 30.76C133.225 28.28 132.265 26.8267 130.612 26.4ZM145.986 16.84V16.6H147.426H148.866V20.4V24.24H151.546H154.226V25.68V27.12H151.546H148.866V32.56C148.892 36.32 148.946 38.32 149.026 38.56C149.026 38.5867 149.066 38.6667 149.146 38.8C149.306 39.12 149.546 39.36 149.866 39.52C149.999 39.5733 150.199 39.6 150.466 39.6C150.732 39.6 150.906 39.5733 150.986 39.52C151.412 39.36 151.746 38.8667 151.986 38.04C152.039 37.8533 152.079 37.28 152.106 36.32V34.92H153.546H154.986V36.2C154.986 37.32 154.892 38.1467 154.706 38.68C154.412 39.56 153.892 40.32 153.146 40.96C152.266 41.6267 151.306 42.04 150.266 42.2C150.026 42.2267 149.612 42.24 149.026 42.24C147.932 42.2133 147.039 42.0533 146.346 41.76C145.466 41.4667 144.746 40.9333 144.186 40.16C143.759 39.5733 143.479 38.8133 143.346 37.88C143.319 37.7467 143.306 35.8933 143.306 32.32V27.12H141.946H140.546V25.92V24.68H140.906C141.759 24.6 142.519 24.3067 143.186 23.8C144.546 22.7333 145.412 21.0533 145.786 18.76C145.919 18.04 145.986 17.4 145.986 16.84Z" fill="#3D564A"/>
<path d="M30.6509 15.3254C30.6509 18.3565 29.7521 21.3196 28.0681 23.8398C26.3841 26.3601 23.9906 28.3244 21.1902 29.4843C18.3899 30.6443 15.3084 30.9478 12.3356 30.3564C9.36275 29.7651 6.63202 28.3055 4.48872 26.1622C2.34542 24.0189 0.88581 21.2881 0.294474 18.3153C-0.296862 15.3424 0.0066334 12.261 1.16658 9.46065C2.32653 6.66029 4.29083 4.26679 6.81108 2.5828C9.33134 0.898822 12.2944 -3.61454e-08 15.3254 0V4.84365C13.2523 4.84365 11.2258 5.4584 9.50207 6.61015C7.77835 7.76191 6.43487 9.39894 5.64153 11.3142C4.84819 13.2295 4.64061 15.3371 5.04505 17.3703C5.4495 19.4036 6.44779 21.2713 7.9137 22.7372C9.3796 24.2031 11.2473 25.2014 13.2805 25.6058C15.3138 26.0103 17.4214 25.8027 19.3367 25.0094C21.252 24.216 22.889 22.8725 24.0407 21.1488C25.1925 19.4251 25.8072 17.3986 25.8072 15.3254H30.6509Z" fill="#3D564A"/>
<mask id="mask0_318_18" style="mask-type:alpha" maskUnits="userSpaceOnUse" x="7" y="0" width="16" height="22">
<rect x="7" width="16" height="22" fill="#D9D9D9"/>
</mask>
<g mask="url(#mask0_318_18)">
<path d="M16 20.4545C15.2667 20.4545 14.6389 20.1934 14.1167 19.6712C13.5944 19.149 13.3333 18.5212 13.3333 17.7879H11.3333C10.9667 17.7879 10.6528 17.6573 10.3917 17.3962C10.1306 17.1351 10 16.8212 10 16.4545C10 14.899 10.5111 13.5573 11.5333 12.4296C12.5556 11.3018 13.8222 10.6546 15.3333 10.4879V0H16.6667V10.4879C18.1778 10.6546 19.4444 11.3018 20.4667 12.4296C21.4889 13.5573 22 14.899 22 16.4545C22 16.8212 21.8694 17.1351 21.6083 17.3962C21.3472 17.6573 21.0333 17.7879 20.6667 17.7879H18.6667C18.6667 18.5212 18.4056 19.149 17.8833 19.6712C17.3611 20.1934 16.7333 20.4545 16 20.4545ZM11.3333 16.4545H20.6667C20.6667 15.1657 20.2111 14.0657 19.3 13.1545C18.3889 12.2434 17.2889 11.7879 16 11.7879C14.7111 11.7879 13.6111 12.2434 12.7 13.1545C11.7889 14.0657 11.3333 15.1657 11.3333 16.4545Z" fill="#3D564A"/>
</g>
<path d="M29.6292 32.1834C29.6292 35.977 28.1222 39.6152 25.4398 42.2977C22.7573 44.9801 19.1191 46.4871 15.3255 46.4871C11.5319 46.4871 7.89368 44.9801 5.2112 42.2977C2.52873 39.6152 1.02173 35.977 1.02173 32.1834L6.9705 32.1834C6.9705 34.3993 7.85076 36.5244 9.41762 38.0913C10.9845 39.6581 13.1096 40.5384 15.3255 40.5384C17.5414 40.5384 19.6665 39.6581 21.2333 38.0913C22.8002 36.5244 23.6805 34.3993 23.6805 32.1834H29.6292Z" fill="#3D564A"/>
</svg>
